<svg xmlns="http://www.w3.org/2000/svg" width="552" height="163"><path data-name="BP LOGO KO" d="M163.6 81.49A81.8 81.8 0 1 1 81.8-.01a81.636 81.636 0 0 1 81.8 81.5zM134 50.55c-.9-3.15-2.8-6.19-6-7.43-4.1-1.64-9.1.14-12.9 1.78a63.741 63.741 0 0 0-21.9 15.91 54.84 54.84 0 0 0-8.7 11.95 5.508 5.508 0 0 0-.5-2.29 5.79 5.79 0 0 1-.6-3.65 29.066 29.066 0 0 1 5.4-12.53 1.119 1.119 0 0 0 .4.16.719.719 0 0 0 .8-.36.891.891 0 0 0 .3-.97.911.911 0 0 0-.4-.48.775.775 0 0 0-.5-.34.606.606 0 0 0-.6.35.537.537 0 0 0-.1.38.489.489 0 0 0-.2.32.236.236 0 0 0-.2.18 27.482 27.482 0 0 0-5.9 15.45c0-.01-.1-.02-.1-.03a.158.158 0 0 1-.1.01.419.419 0 0 0-.4-.06.634.634 0 0 0-.5.06v-.01c-.1.01-.1.02-.1.03a28.224 28.224 0 0 0-5.9-15.45.543.543 0 0 0-.2-.18 2.981 2.981 0 0 0-.2-.32.537.537 0 0 0-.1-.38.714.714 0 0 0-.6-.35.775.775 0 0 0-.5.34.621.621 0 0 0-.4.48.856.856 0 0 0 .2.97.8.8 0 0 0 .9.36.735.735 0 0 0 .3-.16 28.083 28.083 0 0 1 5.5 12.53 5.848 5.848 0 0 1-.7 3.65 7.719 7.719 0 0 0-.5 2.29c-2.1-4.45-5.5-8.53-8.6-11.95A64.7 64.7 0 0 0 48.5 44.9c-3.8-1.64-8.8-3.42-13-1.78-3.1 1.24-5.1 4.28-5.9 7.43-.1.48-.2.96-.3 1.45a9.878 9.878 0 0 0 2.3 7.88c3.5 4.21 9.9 11.94 12.1 15.07a10.92 10.92 0 0 1 1.9 3.52c.3 1.26 0 2.33.4 3.62.5-.62 1-1.28 1.4-1.87v.03a6.716 6.716 0 0 0 1.6 5.78 31.814 31.814 0 0 0 5.4 4.42c3.9 2.53 3.4 4.35.3 7.12-1.5 2.63-.6 3.91.7 5.01 1.5.81 1.4 3.07-1 4.43 1.8 1.46 2.5 2.47.7 4.17a1.3 1.3 0 0 0-1.3 1.21 5.066 5.066 0 0 1 1.3 1.2c1.7 1.99 2.5 4.79 4.9 6.11 2.5 1.35 6.1.73 8.7.2 6.7-1.37 8.9-7.7 10.6-13.59v.44a21.873 21.873 0 0 0-.2 7.19v.03c0 .14.1.28.1.39.3 1.49 5 1.52 5.1 0a.537.537 0 0 0 .1-.39v-.03a21.769 21.769 0 0 0-.1-7.19v-.44c1.7 5.89 3.9 12.22 10.5 13.59 2.7.53 6.3 1.15 8.7-.2 2.4-1.32 3.3-4.12 4.9-6.11a5.451 5.451 0 0 1 1.4-1.2 1.3 1.3 0 0 0-1.3-1.21c-1.8-1.7-1.1-2.71.6-4.17-2.4-1.36-2.4-3.62-.9-4.43 1.3-1.1 2.2-2.38.7-5.01-3.1-2.77-3.7-4.59.2-7.12a32.293 32.293 0 0 0 5.5-4.42 6.375 6.375 0 0 0 1.5-5.78v-.03c.5.59.9 1.25 1.5 1.87.4-1.29.1-2.36.4-3.62a9.289 9.289 0 0 1 1.9-3.52 123.1 123.1 0 0 1 8.6-10.91c.8-.87 2.2-2.57 3.5-4.17a10.142 10.142 0 0 0 2.3-7.82q-.15-.765-.3-1.5zm71.9-13.96h20.6c8 0 13.4 2.25 13.4 8.71a7.321 7.321 0 0 1-4 7.08 9.131 9.131 0 0 1 5.3 8.39c0 6.42-5.1 9.89-13.4 9.89h-21.9V36.59zm21 13.45c4.4 0 6.3-1.08 6.3-3.94 0-2.9-1.9-3.98-6.3-3.98h-14.3v7.92h14.3zm.2 15.09c4.2 0 7.4-.84 7.4-4.87 0-3.57-2.9-4.69-7.4-4.69h-14.5v9.56h14.5zm55-9.09c0 10.96-7 15.46-18.1 15.46-11.2 0-18.2-4.5-18.2-15.46V36.59h6.7v18.98c0 5.62 2 10.22 11.5 10.22 9.4 0 11.5-4.6 11.5-10.22V36.59h6.6v19.45zm21.2-13.74h-15.2v-5.71h37.2v5.71H310v28.36h-6.7V42.3zm41.1 0h-15.3v-5.71h37.2v5.71H351v28.36h-6.6V42.3zm27.8-5.71h30.7v5.71h-24v7.93h20.7v5.71h-20.7v9h24.6v5.72h-31.3V36.59zm37.6 0h20.5c8.1 0 13.9 1.83 13.9 10.17 0 6.28-4.5 9.75-9.5 10.03l10.5 13.87H437l-10-13.4h-10.5v13.4h-6.7V36.59zm19.5 15.14c5.5 0 8.3-.8 8.3-4.83 0-3.99-2.8-4.78-8.3-4.78h-12.8v9.61h12.8zm21.3-15.14h31.5v5.71h-24.8v7.93h21.3v5.71h-21.3v14.72h-6.7V36.59zm37.6 0h6.7v28.16h24.7v5.91h-31.4V36.59zm40.4 20.43l-16.7-20.43h8.2L532 51.02l11.8-14.43h8.2l-16.7 20.43v13.64h-6.7V57.02zm-322.7 27.5h19c5.8 0 15.3 0 15.3 10.45 0 10.41-9.5 10.41-15.3 10.41h-12.3v13.22h-6.7V84.52zm20.5 15.14c3.8 0 7.1-.33 7.1-4.73 0-4.36-3.3-4.69-7.1-4.69h-13.8v9.42h13.8zm29.3-15.14h7.6l16.6 34.08h-7.1l-3.6-7.83h-19.7l-3.6 7.83h-7.1zm10.9 20.53l-7.1-15.19-7.2 15.19h14.3zm8.3-20.53h7.1l12.9 27.18 13-27.18h7.2l-16.7 34.08h-7zm46.4 0h6.7v34.08h-6.7V84.52zm16.1 0h6.7v28.17h24.8v5.91h-31.5V84.52zm38 0h6.7v34.08h-6.7V84.52zm34.3-.84c15 0 20.3 8.81 20.3 18.14 0 7.07-4.1 17.62-20.3 17.62s-20.4-10.55-20.4-17.62c0-9.33 5.3-18.14 20.4-18.14zm13.7 17.76c0-8.2-5.9-12.04-13.7-12.04S396 93.24 396 101.44c0 9.66 7.3 12.28 13.7 12.28s13.7-2.62 13.7-12.28zm13.5-16.92h7l22.9 24.61V84.52h6.4v34.08h-6.1l-23.8-25.5v25.5h-6.4V84.52z" fill="#fff" fill-rule="evenodd"/></svg>